<svg width="24" height="25" viewBox="0 0 24 25" fill="none" xmlns="http://www.w3.org/2000/svg">
<path d="M18.1268 14.7695C16.4586 14.7695 15.1016 16.1266 15.1016 17.7947C15.1016 19.4629 16.4586 20.82 18.1268 20.82C19.7952 20.82 21.152 19.4629 21.152 17.7947C21.152 16.1266 19.7949 14.7695 18.1268 14.7695ZM18.1268 19.3074C17.2926 19.3074 16.6142 18.6289 16.6142 17.7947C16.6142 16.9606 17.2926 16.2821 18.1268 16.2821C18.961 16.2821 19.6394 16.9606 19.6394 17.7947C19.6394 18.629 18.961 19.3074 18.1268 19.3074Z" fill="#424D59"/>
<path d="M7.79084 14.7695C6.1227 14.7695 4.76562 16.1266 4.76562 17.7947C4.76562 19.4629 6.1227 20.82 7.79084 20.82C9.45898 20.82 10.8161 19.4629 10.8161 17.7947C10.8161 16.1266 9.45898 14.7695 7.79084 14.7695ZM7.79084 19.3074C6.95666 19.3074 6.27823 18.6289 6.27823 17.7947C6.27823 16.9606 6.95666 16.2821 7.79084 16.2821C8.6248 16.2821 9.30345 16.9606 9.30345 17.7947C9.30345 18.629 8.62503 19.3074 7.79084 19.3074Z" fill="#424D59"/>
<path d="M20.163 6.10984C20.0344 5.85447 19.773 5.69336 19.4871 5.69336H15.5039V7.20597H19.0207L21.0801 11.3021L22.4319 10.6224L20.163 6.10984Z" fill="#424D59"/>
<path d="M15.8575 17.0625H10.1348V18.5751H15.8575V17.0625Z" fill="#424D59"/>
<path d="M5.52067 17.0625H2.89886C2.48111 17.0625 2.14258 17.4011 2.14258 17.8188C2.14258 18.2365 2.48116 18.5751 2.89886 18.5751H5.52072C5.93847 18.5751 6.277 18.2365 6.277 17.8188C6.277 17.401 5.93842 17.0625 5.52067 17.0625Z" fill="#424D59"/>
<path d="M23.8409 12.4405L22.3533 10.5245C22.2103 10.3399 21.9897 10.232 21.756 10.232H16.2602V4.93792C16.2602 4.52017 15.9216 4.18164 15.5039 4.18164H2.89886C2.48111 4.18164 2.14258 4.52022 2.14258 4.93792C2.14258 5.35563 2.48116 5.6942 2.89886 5.6942H14.7476V10.9883C14.7476 11.4061 15.0862 11.7446 15.5039 11.7446H21.3857L22.4871 13.1634V17.0639H20.3946C19.9769 17.0639 19.6383 17.4025 19.6383 17.8202C19.6383 18.238 19.9769 18.5765 20.3946 18.5765H23.2434C23.6611 18.5765 23.9996 18.2379 23.9997 17.8202V12.9043C23.9997 12.7364 23.9437 12.5731 23.8409 12.4405Z" fill="#424D59"/>
<path d="M5.46967 13.2305H1.99066C1.57291 13.2305 1.23438 13.569 1.23438 13.9868C1.23438 14.4045 1.57295 14.743 1.99066 14.743H5.46962C5.88737 14.743 6.2259 14.4045 6.2259 13.9868C6.22595 13.569 5.88737 13.2305 5.46967 13.2305Z" fill="#424D59"/>
<path d="M7.21008 10.2559H0.756281C0.338578 10.2559 0 10.5944 0 11.0122C0 11.4299 0.338578 11.7685 0.756281 11.7685H7.21008C7.62783 11.7685 7.96636 11.4299 7.96636 11.0122C7.96636 10.5945 7.62783 10.2559 7.21008 10.2559Z" fill="#424D59"/>
<path d="M8.44445 7.28125H1.99066C1.57291 7.28125 1.23438 7.61983 1.23438 8.03753C1.23438 8.45528 1.57295 8.79381 1.99066 8.79381H8.44445C8.8622 8.79381 9.20073 8.45523 9.20073 8.03753C9.20078 7.61983 8.8622 7.28125 8.44445 7.28125Z" fill="#424D59"/>
</svg>
