<svg width="40" height="41" viewBox="0 0 40 41" fill="none" xmlns="http://www.w3.org/2000/svg">
<path d="M39.5063 23.1252V27.4036C39.5063 29.398 37.888 31.0163 35.8936 31.0163H35.6202C35.6202 28.7865 33.8125 26.976 31.5799 26.976C29.3501 26.976 27.5423 28.7865 27.5423 31.0163H25.0879V13.3965H32.0562C33.2984 13.3965 34.4539 14.0352 35.1142 15.0878L38.9543 21.2037C39.3141 21.7802 39.5063 22.4459 39.5063 23.1252Z" fill="white"/>
<path d="M35.5222 21.9338H27.8015C27.2007 21.9338 26.7109 21.444 26.7109 20.8432V16.1102C26.7109 15.5094 27.2007 15.0195 27.8015 15.0195H32.0556C32.743 15.0195 33.3735 15.3687 33.7388 15.9505L36.445 20.2614C36.9023 20.9894 36.3801 21.9338 35.5222 21.9338Z" fill="#E5E5E5"/>
<path d="M25.0878 9.55609V31.016H14.6717C14.6717 28.7862 12.864 26.9757 10.6314 26.9757C8.40148 26.9757 6.59383 28.7862 6.59383 31.016H4.10688C2.11242 31.016 0.494141 29.3977 0.494141 27.4033V9.55609C0.494141 7.56164 2.11242 5.94336 4.10688 5.94336H21.4751C23.4695 5.94336 25.0878 7.56164 25.0878 9.55609Z" fill="white"/>
<path d="M25.0884 22.002V31.0162H14.6713C14.6713 28.7877 12.8618 26.9739 10.629 26.9739C8.40031 26.9739 6.595 28.7876 6.595 31.0162H4.10484C2.11273 31.0162 0.494141 29.3977 0.494141 27.4014V22.002H25.0884Z" fill="#E5E5E5"/>
<path d="M35.6203 31.0158C35.6203 33.2458 33.8121 35.0569 31.5792 35.0569C29.3492 35.0569 27.541 33.2457 27.541 31.0158C27.541 28.7858 29.3492 26.9746 31.5792 26.9746C33.8122 26.9746 35.6203 28.7857 35.6203 31.0158Z" fill="url(#paint0_linear_10921_68815)"/>
<path d="M33.488 31.0152C33.488 32.068 32.6344 32.923 31.5802 32.923C30.5274 32.923 29.6738 32.068 29.6738 31.0152C29.6738 29.9624 30.5275 29.1074 31.5802 29.1074C32.6345 29.1074 33.488 29.9624 33.488 31.0152Z" fill="url(#paint1_linear_10921_68815)"/>
<path d="M14.673 31.0158C14.673 33.2458 12.8648 35.0569 10.632 35.0569C8.40195 35.0569 6.59375 33.2457 6.59375 31.0158C6.59375 28.7858 8.40195 26.9746 10.632 26.9746C12.8649 26.9746 14.673 28.7857 14.673 31.0158Z" fill="url(#paint2_linear_10921_68815)"/>
<path d="M12.5388 31.0152C12.5388 32.068 11.6852 32.923 10.631 32.923C9.5782 32.923 8.72461 32.068 8.72461 31.0152C8.72461 29.9624 9.57828 29.1074 10.631 29.1074C11.6852 29.1074 12.5388 29.9624 12.5388 31.0152Z" fill="url(#paint3_linear_10921_68815)"/>
<path d="M39.5063 23.2637V25.5092H38.6451C38.026 25.5092 37.5234 25.0066 37.5234 24.3853C37.5234 23.7634 38.0303 23.2637 38.6451 23.2637H39.5063Z" fill="url(#paint4_linear_10921_68815)"/>
<path d="M10.0725 17.8886L8.2825 15.7029C7.84586 15.1692 7.9239 14.3825 8.45765 13.9453C8.99093 13.5085 9.77734 13.5863 10.2155 14.1203L11.121 15.2263L15.8603 10.376C16.3423 9.88269 17.1332 9.87371 17.6264 10.3555C18.1197 10.8375 18.1289 11.6284 17.6469 12.1216L11.9323 17.9701C11.4125 18.5018 10.5449 18.4648 10.0725 17.8886Z" fill="#E5E5E5"/>
<path d="M28.5033 24.0663H26.7119C26.4825 24.0663 26.2969 23.8805 26.2969 23.6513C26.2969 23.4221 26.4825 23.2363 26.7119 23.2363H28.5033C28.7327 23.2363 28.9183 23.4222 28.9183 23.6513C28.9184 23.8805 28.7327 24.0663 28.5033 24.0663Z" fill="#465BCA"/>
<defs>
<linearGradient id="paint0_linear_10921_68815" x1="31.5807" y1="35.0569" x2="31.5807" y2="26.9746" gradientUnits="userSpaceOnUse">
<stop stop-color="#41262F"/>
<stop offset="1" stop-color="#543843"/>
</linearGradient>
<linearGradient id="paint1_linear_10921_68815" x1="29.6739" y1="31.0152" x2="33.4881" y2="31.0152" gradientUnits="userSpaceOnUse">
<stop offset="0.0168" stop-color="#CCCCCC"/>
<stop offset="1" stop-color="#F2F2F2"/>
</linearGradient>
<linearGradient id="paint2_linear_10921_68815" x1="10.6334" y1="35.0569" x2="10.6334" y2="26.9746" gradientUnits="userSpaceOnUse">
<stop stop-color="#41262F"/>
<stop offset="1" stop-color="#543843"/>
</linearGradient>
<linearGradient id="paint3_linear_10921_68815" x1="8.72469" y1="31.0152" x2="12.5389" y2="31.0152" gradientUnits="userSpaceOnUse">
<stop offset="0.0168" stop-color="#CCCCCC"/>
<stop offset="1" stop-color="#F2F2F2"/>
</linearGradient>
<linearGradient id="paint4_linear_10921_68815" x1="38.5148" y1="25.5092" x2="38.5148" y2="23.2637" gradientUnits="userSpaceOnUse">
<stop stop-color="#F79808"/>
<stop offset="1" stop-color="#ECBD0B"/>
</linearGradient>
</defs>
</svg>
